<svg width="31" height="23" viewBox="0 0 31 23" fill="none" xmlns="http://www.w3.org/2000/svg">
<path d="M30.165 5.88907L22.9673 11.2546V22.9673H28.0057C29.1835 22.9673 30.165 22.0185 30.165 20.808V5.88907Z" fill="#4CAF50"/>
<path d="M0 5.88907L7.16501 11.2874V23H2.15932C0.981508 23 0 22.0512 0 20.8407V5.88907Z" fill="#1E88E5"/>
<path d="M22.9673 2.29019L15.0825 8.21196L7.19775 2.29019V11.2546L15.0825 17.1764L22.9673 11.2546V2.29019Z" fill="#E53935"/>
<path d="M0 3.07539V5.88905L7.16501 11.2873V2.29018L4.94026 0.621621C4.41679 0.229018 3.76245 0 3.07539 0C1.37411 0 0 1.37411 0 3.07539Z" fill="#C62828"/>
<path d="M30.165 3.07539V5.88905L22.9673 11.2546V2.29018L25.2248 0.621621C25.7482 0.229018 26.4026 0 27.0896 0C28.7909 0 30.165 1.37411 30.165 3.07539Z" fill="#FBC02D"/>
</svg>
