<svg width="24" height="24" viewBox="0 0 24 24" fill="none" xmlns="http://www.w3.org/2000/svg">
<path d="M12 24C18.6274 24 24 18.6274 24 12C24 5.37258 18.6274 0 12 0C5.37258 0 0 5.37258 0 12C0 18.6274 5.37258 24 12 24Z" fill="#04ACDE"/>
<path d="M9.6001 18.0857L12.4715 15.6857L9.99867 14.4386L9.6001 18.0857Z" fill="#A8CAE1"/>
<path d="M17.7558 7.09712L4.62004 12C4.5522 12.0251 4.49404 12.071 4.45389 12.1312C4.41374 12.1914 4.39365 12.2627 4.39651 12.335C4.39936 12.4073 4.42501 12.4768 4.46978 12.5337C4.51455 12.5905 4.57614 12.6317 4.64575 12.6514L9.36004 14.0014C9.40184 14.0145 9.44101 14.0348 9.47576 14.0614L15.39 18.6043C15.436 18.6396 15.4902 18.6626 15.5475 18.6713C15.6049 18.68 15.6634 18.674 15.7178 18.6538C15.7722 18.6337 15.8205 18.6001 15.8584 18.5562C15.8963 18.5124 15.9224 18.4596 15.9343 18.4028L18.2058 7.51284C18.2233 7.45177 18.2236 7.38702 18.2064 7.32583C18.1893 7.26463 18.1556 7.20939 18.1089 7.16627C18.0622 7.12316 18.0045 7.09386 17.9421 7.08165C17.8798 7.06944 17.8152 7.07479 17.7558 7.09712Z" fill="white"/>
<path d="M8.24573 13.6629L9.60001 18.0857L9.99858 14.4386L16.2 8.87143L8.24573 13.6629Z" fill="#C1D8E9"/>
</svg>
